{"title":"Vehicle 19 2013 WEBRiP CROPPED XviD Feel-Free","uid":8319262,"size":661232625,"categoryP":"video","categoryS":"movies","magnet":"?xt=urn:btih:80e9a2fa3b757b39c84ad19547e98a131c9cb1b3&amp;dn=Vehicle+19+2013+WEBRiP+CROPPED+XviD+Feel-Free&amp;tr=udp%3A%2F%2Ftracker.openbittorrent.com%3A80&amp;tr=udp%3A%2F%2Fopen.demonii.com%3A1337&amp;tr=udp%3A%2F%2Ftracker.coppersurfer.tk%3A6969&amp;tr=udp%3A%2F%2Fexodus.desync.com%3A6969","seeders":1,"leechers":0,"uploader":"Gh0stNet","files":5,"time":1364602662,"description":"Format                                   : AVI\nFormat/Info                              : Audio Video Interleave\nFile size                                : 630 MiB\nDuration                                 : 1h 25mn\nOverall bit rate                         : 1 034 Kbps\nWriting application                      : VirtualDubMod 1.5.10.2 (build 2540/release)\nWriting library                          : VirtualDubMod build 2540/release\n\nVideo\nID                                       : 0\nFormat                                   : MPEG-4 Visual\nFormat profile                           : Advanced Simple@L5\nFormat settings, BVOP                    : 1\nFormat settings, QPel                    : No\nFormat settings, GMC                     : No warppoints\nFormat settings, Matrix                  : Default (H.263)\nCodec ID                                 : XVID\nCodec ID/Hint                            : XviD\nDuration                                 : 1h 25mn\nBit rate                                 : 865 Kbps\nWidth                                    : 640 pixels\nHeight                                   : 224 pixels\nDisplay aspect ratio                     : 2.857\nFrame rate                               : 23.976 fps\nColor space                              : YUV\nChroma subsampling                       : 4:2:0\nBit depth                                : 8 bits\nScan type                                : Progressive\nCompression mode                         : Lossy\nBits/(Pixel*Frame)                       : 0.252\nStream size                              : 527 MiB (84%)\nWriting library                          : XviD 1.2.1 (UTC 2008-12-04)\n\nAudio\nID                                       : 1\nFormat                                   : AC-3\nFormat/Info                              : Audio Coding 3\nMode extension                           : CM (complete main)\nCodec ID                                 : 2000\nDuration                                 : 1h 25mn\nBit rate mode                            : Constant\nBit rate                                 : 160 Kbps\nChannel(s)                               : 2 channels\nChannel positions                        : Front: L R\nSampling rate                            : 48.0 KHz\nBit depth                                : 16 bits\nCompression mode                         : Lossy\nStream size                              : 97.5 MiB (15%)\nAlignment                                : Aligned on interleaves\nInterleave, duration                     : 42 ms (1.00 video frame)\nInterleave, preload duration             : 512 ms\n\nScreens: &lt;a href=&quot;\nhttp://i.imgur.com/BWqusLg.png&quot; rel=&quot;nofollow&quot; target=&quot;_NEW&quot;&gt;\nhttp://i.imgur.com/BWqusLg.png&lt;/a&gt; &lt;a href=&quot;\nhttp://i.imgur.com/f2nd3kW.png&quot; rel=&quot;nofollow&quot; target=&quot;_NEW&quot;&gt;\nhttp://i.imgur.com/f2nd3kW.png&lt;/a&gt; &lt;a href=&quot;\nhttp://i.imgur.com/MQBirNG.png&quot; rel=&quot;nofollow&quot; target=&quot;_NEW&quot;&gt;\nhttp://i.imgur.com/MQBirNG.png&lt;/a&gt;","torrent":{"xt":"urn:btih:80e9a2fa3b757b39c84ad19547e98a131c9cb1b3","amp;dn":"Vehicle+19+2013+WEBRiP+CROPPED+XviD+Feel-Free","amp;tr":["udp%3A%2F%2Ftracker.openbittorrent.com%3A80","udp%3A%2F%2Fopen.demonii.com%3A1337","udp%3A%2F%2Ftracker.coppersurfer.tk%3A6969","udp%3A%2F%2Fexodus.desync.com%3A6969"],"infoHash":"80e9a2fa3b757b39c84ad19547e98a131c9cb1b3","infoHashBuffer":{"type":"Buffer","data":[128,233,162,250,59,117,123,57,200,74,209,149,71,233,138,19,28,156,177,179]},"announce":[],"urlList":[]}}